<?xml version="1.0" encoding="UTF-8"?>
<svg version="1.1" xmlns="http://www.w3.org/2000/svg" width="500" height="500">
<path d="M0 0 C1.21205612 -0.00701431 2.42411224 -0.01402863 3.67289734 -0.02125549 C7.56582386 -0.03867598 11.45859843 -0.04510807 15.3515625 -0.046875 C16.34490664 -0.04753778 16.34490664 -0.04753778 17.35831833 -0.04821396 C37.04543634 -0.05510839 56.49183189 0.07274116 75.9765625 3.203125 C77.06904297 3.37473145 78.16152344 3.54633789 79.28710938 3.72314453 C124.41680669 11.05901485 166.86843829 27.0996855 200.9765625 58.203125 C201.47462402 58.6559082 201.97268555 59.10869141 202.48583984 59.57519531 C215.14401471 71.25017102 225.53547754 85.22864028 233.9765625 100.203125 C234.35876953 100.86940918 234.74097656 101.53569336 235.13476562 102.22216797 C249.62771176 127.67669658 257.89685843 155.68475805 262.7890625 184.453125 C262.9840332 185.59861816 263.17900391 186.74411133 263.37988281 187.92431641 C266.47581734 207.39266661 267.32654551 226.78255446 267.29223633 246.47729492 C267.28908639 250.23711474 267.31260816 253.99613648 267.33789062 257.75585938 C267.39749372 280.28592089 265.77977729 302.77789931 261.2890625 324.890625 C261.03487549 326.16405762 260.78068848 327.43749023 260.51879883 328.74951172 C256.35691782 349.04984851 249.87055061 368.49494829 240.9765625 387.203125 C240.44144043 388.32920166 240.44144043 388.32920166 239.89550781 389.47802734 C217.78132586 435.17325144 177.30997743 467.46571912 129.9609375 484.203125 C98.95161631 494.76034373 65.66787075 500.28390662 32.91796875 500.40625 C31.69416 500.41195007 30.47035126 500.41765015 29.2094574 500.42352295 C26.62524259 500.43291879 24.04101609 500.43948521 21.45678711 500.44335938 C17.60833161 500.45295233 13.76043746 500.48398204 9.91210938 500.515625 C-12.9209617 500.61415619 -35.62873379 499.01128259 -58.0234375 494.390625 C-59.95183472 494.00269775 -59.95183472 494.00269775 -61.91918945 493.60693359 C-102.86686485 485.15371545 -139.66536563 468.13554156 -170.0234375 439.203125 C-170.85359375 438.43742187 -171.68375 437.67171875 -172.5390625 436.8828125 C-192.71137488 417.68657975 -206.48005975 392.10657889 -216.0234375 366.203125 C-216.26803711 365.5524707 -216.51263672 364.90181641 -216.76464844 364.23144531 C-228.12418658 333.66852669 -233.10507939 299.66414936 -233.2265625 267.14453125 C-233.23511261 265.30881813 -233.23511261 265.30881813 -233.24383545 263.4360199 C-233.25323129 260.85180509 -233.25979771 258.26757859 -233.26367188 255.68334961 C-233.27326483 251.83489411 -233.30429454 247.98699996 -233.3359375 244.13867188 C-233.61761327 177.86044345 -217.62373231 111.21867899 -171.0234375 62.203125 C-170.4046875 61.51992188 -169.7859375 60.83671875 -169.1484375 60.1328125 C-127.92473728 16.14859664 -57.93707256 0.22469697 0 0 Z " fill="#F7F7F7" transform="translate(233.0234375,-0.203125)"/>
<path d="M0 0 C11.73618083 -0.09313717 23.47227212 -0.16398531 35.20874882 -0.20724869 C40.65988893 -0.22802461 46.11077412 -0.25615742 51.56176758 -0.30175781 C56.83323572 -0.34557482 62.10446037 -0.36921204 67.37609673 -0.37950897 C69.37611149 -0.38683652 71.37611462 -0.40114328 73.37602425 -0.42292023 C93.47470818 -0.63284833 111.77311569 2.29719987 127.00390625 16.7734375 C137.036363 27.96424053 141.17527939 40.37055961 141.25 55.0625 C141.2809375 56.54266602 141.2809375 56.54266602 141.3125 58.05273438 C141.36554411 68.17752916 138.95744557 77.06851859 134.375 86.0625 C134.02800049 86.74513916 133.68100098 87.42777832 133.32348633 88.13110352 C130.06309114 94.28849493 126.10652853 99.24221001 121 104 C119.73349609 105.18529297 119.73349609 105.18529297 118.44140625 106.39453125 C109.70434474 114.04104517 100.22231422 118.38591814 89 121 C89.19110352 121.53778076 89.38220703 122.07556152 89.57910156 122.62963867 C90.47218397 125.14794835 91.36109075 127.6677144 92.25 130.1875 C92.55035156 131.03248047 92.85070312 131.87746094 93.16015625 132.74804688 C95.1704205 138.45805277 97.00242831 144.20371612 98.76367188 149.99487305 C100.32878659 155.10149971 101.96921539 160.18408909 103.6015625 165.26953125 C104.0887677 166.78929817 104.0887677 166.78929817 104.58581543 168.33976746 C105.94228813 172.57038362 107.2994981 176.80075718 108.66015625 181.0300293 C109.66376235 184.15079588 110.66415207 187.27257891 111.6640625 190.39453125 C111.9692984 191.34052689 112.2745343 192.28652252 112.58901978 193.26118469 C113.01989395 194.60880135 113.01989395 194.60880135 113.45947266 195.98364258 C113.70944 196.76161697 113.95940735 197.53959137 114.21694946 198.34114075 C115.2543426 201.86362393 116.10939306 205.43757223 117 209 C103.14 209 89.28 209 75 209 C72.99797183 202.9939155 71.0558535 197.00116305 69.25 190.9375 C68.86811523 189.66144897 68.86811523 189.66144897 68.47851562 188.35961914 C66.14759794 180.54779966 63.88238095 172.71713473 61.61743164 164.88598633 C59.52344938 157.6864322 57.31646638 150.5297701 54.953125 143.41381836 C53.16352927 137.91422385 52.15620561 132.78102805 51 127 C39.45 127 27.9 127 16 127 C15.505 133.435 15.505 133.435 15 140 C14.48264744 143.44660179 13.93223572 146.84787279 13.29296875 150.26953125 C13.12738968 151.18637695 12.96181061 152.10322266 12.79121399 153.04785156 C12.26237162 155.97047559 11.72492695 158.89144378 11.1875 161.8125 C10.64003683 164.82877155 10.09498223 167.84547135 9.55020142 170.86222839 C9.19328493 172.83843726 8.83568795 174.81452334 8.47738647 176.79048157 C6.53666035 187.50887577 4.75517519 198.24955195 3 209 C-9.87 209 -22.74 209 -36 209 C-34.25833634 195.66153586 -32.2973182 182.44434675 -29.81274414 169.2265625 C-28.92101033 164.47761214 -28.04819254 159.72518849 -27.17578125 154.97265625 C-26.99500031 153.98862823 -26.81421936 153.00460022 -26.62796021 151.99075317 C-24.6510951 141.17756445 -22.82321166 130.33995278 -21 119.5 C-18.31036144 103.53105137 -15.50222216 87.58911336 -12.57543945 71.6619873 C-8.19522342 47.80768612 -4.10031656 23.90373265 0 0 Z " fill="#1E1F26" transform="translate(164,142)"/>
<path d="M0 0 C6.42289839 -0.05087056 12.84574446 -0.0858051 19.26879883 -0.10986328 C21.45208681 -0.11989692 23.63536143 -0.1335269 25.81860352 -0.15087891 C28.96373805 -0.17524313 32.10869429 -0.18650971 35.25390625 -0.1953125 C36.2239711 -0.20563507 37.19403595 -0.21595764 38.1934967 -0.22659302 C46.38679752 -0.22793772 54.5964138 0.83215181 60.82421875 6.7265625 C67.22142047 13.67362852 69.50084061 19.56558956 69.21875 29.015625 C68.44334111 39.59441778 65.05475871 48.48229377 57.25 55.875 C47.40951432 64.15327208 36.73692718 66.32990101 24.15625 66.1953125 C23.14655151 66.1924826 22.13685303 66.18965271 21.09655762 66.18673706 C17.89758033 66.1756153 14.6988915 66.15052563 11.5 66.125 C9.32031657 66.11495985 7.14062871 66.10583582 4.9609375 66.09765625 C-0.35947205 66.07570225 -5.67971541 66.04230518 -11 66 C-10.36313722 58.43883744 -9.25232232 51.01122463 -7.96875 43.53515625 C-7.77277222 42.38003036 -7.57679443 41.22490448 -7.37487793 40.03477478 C-6.96297893 37.61169057 -6.5494206 35.1888879 -6.13427734 32.76635742 C-5.49786849 29.05005308 -4.86770078 25.33272817 -4.23828125 21.61523438 C-3.83630521 19.25514567 -3.4339741 16.89511742 -3.03125 14.53515625 C-2.84268433 13.42270035 -2.65411865 12.31024445 -2.45983887 11.16407776 C-2.28295532 10.13548141 -2.10607178 9.10688507 -1.92382812 8.04711914 C-1.76918091 7.14240372 -1.61453369 6.23768829 -1.4552002 5.30555725 C-1 3 -1 3 0 0 Z " fill="#F6F6F6" transform="translate(197,174)"/>
<path d="M0 0 C4.42444634 3.05964737 7.97007721 7.31890957 9.9375 12.33984375 C10.76944594 20.1949612 10.98654702 27.89957324 5.9375 34.33984375 C0.26637034 40.01097341 -4.99078506 42.46632781 -12.875 42.83984375 C-19.83132458 42.64806538 -25.42980594 40.51845106 -30.6875 35.91796875 C-35.73072573 30.33439741 -37.68187381 24.20381232 -37.40234375 16.82421875 C-36.4199183 9.64234992 -32.5239258 5.37048608 -27.16015625 0.78515625 C-19.28583517 -4.64035362 -8.34969343 -4.31298502 0 0 Z " fill="#FE4948" transform="translate(347.0625,310.66015625)"/>
</svg>
